<?xml version="1.0" encoding="UTF-8"?>
<svg width="256" height="256" version="1.1" viewBox="0 0 256 256" xmlns="http://www.w3.org/2000/svg"><path d="m0 232h24v24h-24z" fill="none"/><g transform="matrix(10.667 0 0 10.667 0 -2474.7)"><rect y="232" width="24" height="24" ry="4" fill="#06389a" stroke-width="5.9988"/><ellipse cx="12" cy="244" rx="9.492" ry="9.528" fill="#fff"/><path d="m12 242.9c-0.61 0-1.1 0.49-1.1 1.1s0.49 1.1 1.1 1.1 1.1-0.49 1.1-1.1-0.49-1.1-1.1-1.1zm0-8.9c-5.52 0-10 4.48-10 10s4.48 10 10 10 10-4.48 10-10-4.48-10-10-10zm2.19 12.19-8.19 3.81 3.81-8.19 8.19-3.81z" fill="#e35c24"/></g></svg>
